<mxfile host="Electron" agent="Mozilla/5.0 (Windows NT 10.0; Win64; x64) AppleWebKit/537.36 (KHTML, like Gecko) draw.io/28.0.6 Chrome/138.0.7204.100 Electron/37.2.3 Safari/537.36" version="28.0.6">
  <diagram name="Page-1" id="ilG6U6b6iyERuPqiISkP">
    <mxGraphModel dx="1006" dy="770" grid="1" gridSize="10" guides="1" tooltips="1" connect="1" arrows="1" fold="1" page="1" pageScale="1" pageWidth="1100" pageHeight="850" math="0" shadow="0">
      <root>
        <mxCell id="0" />
        <mxCell id="1" parent="0" />
        <mxCell id="-eMX7yB4bLtKW5rNgO_s-1" value="&lt;b&gt;&lt;font style=&quot;font-size: 21px;&quot;&gt;Data Flow Diagram&lt;/font&gt;&lt;/b&gt;" style="text;html=1;align=center;verticalAlign=middle;whiteSpace=wrap;rounded=0;" vertex="1" parent="1">
          <mxGeometry x="20" y="20" width="240" height="30" as="geometry" />
        </mxCell>
        <mxCell id="-eMX7yB4bLtKW5rNgO_s-3" value="" style="rounded=0;whiteSpace=wrap;html=1;fillColor=none;dashed=1;strokeColor=#B3B3B3;" vertex="1" parent="1">
          <mxGeometry x="42" y="141" width="180" height="420" as="geometry" />
        </mxCell>
        <mxCell id="-eMX7yB4bLtKW5rNgO_s-4" value="&lt;font style=&quot;font-size: 23px;&quot;&gt;&lt;b&gt;Sources&lt;/b&gt;&lt;/font&gt;" style="rounded=1;whiteSpace=wrap;html=1;fillColor=default;strokeColor=none;" vertex="1" parent="1">
          <mxGeometry x="75.5" y="116" width="120" height="40" as="geometry" />
        </mxCell>
        <mxCell id="-eMX7yB4bLtKW5rNgO_s-7" value="&lt;b&gt;Bronze Layer&lt;/b&gt;" style="rounded=1;whiteSpace=wrap;html=1;fillColor=#ffe6cc;strokeColor=#d79b00;fontSize=20;" vertex="1" parent="1">
          <mxGeometry x="282" y="116" width="160" height="30" as="geometry" />
        </mxCell>
        <mxCell id="-eMX7yB4bLtKW5rNgO_s-8" value="" style="rounded=1;whiteSpace=wrap;html=1;fillColor=default;strokeColor=#d79b00;fontSize=20;fillStyle=hatch;" vertex="1" parent="1">
          <mxGeometry x="272" y="156" width="170" height="405" as="geometry" />
        </mxCell>
        <mxCell id="-eMX7yB4bLtKW5rNgO_s-9" value="&lt;b&gt;Silver Layer&lt;/b&gt;" style="rounded=1;whiteSpace=wrap;html=1;fillColor=#f5f5f5;strokeColor=#666666;fontSize=20;fontColor=#333333;" vertex="1" parent="1">
          <mxGeometry x="482" y="116" width="160" height="30" as="geometry" />
        </mxCell>
        <mxCell id="-eMX7yB4bLtKW5rNgO_s-10" value="" style="rounded=1;whiteSpace=wrap;html=1;fillColor=default;strokeColor=#666666;fontSize=20;fontColor=#333333;fillStyle=hatch;" vertex="1" parent="1">
          <mxGeometry x="482" y="157" width="160" height="405" as="geometry" />
        </mxCell>
        <mxCell id="-eMX7yB4bLtKW5rNgO_s-11" value="&lt;b&gt;Gold Layer&lt;/b&gt;" style="rounded=1;whiteSpace=wrap;html=1;fillColor=#fff2cc;strokeColor=#d6b656;fontSize=20;fillStyle=auto;" vertex="1" parent="1">
          <mxGeometry x="672" y="116" width="160" height="30" as="geometry" />
        </mxCell>
        <mxCell id="-eMX7yB4bLtKW5rNgO_s-12" value="" style="rounded=1;whiteSpace=wrap;html=1;fillColor=default;strokeColor=#d6b656;fontSize=20;fillStyle=hatch;" vertex="1" parent="1">
          <mxGeometry x="672" y="156" width="160" height="405" as="geometry" />
        </mxCell>
        <mxCell id="-eMX7yB4bLtKW5rNgO_s-13" value="&lt;b&gt;CRM&lt;/b&gt;" style="image;aspect=fixed;html=1;points=[];align=center;fontSize=12;image=img/lib/azure2/general/Folder_Blank.svg;" vertex="1" parent="1">
          <mxGeometry x="101" y="227" width="69" height="56.00000000000001" as="geometry" />
        </mxCell>
        <mxCell id="-eMX7yB4bLtKW5rNgO_s-41" style="edgeStyle=orthogonalEdgeStyle;rounded=0;orthogonalLoop=1;jettySize=auto;html=1;exitX=1;exitY=0.5;exitDx=0;exitDy=0;exitPerimeter=0;entryX=0;entryY=0.5;entryDx=0;entryDy=0;" edge="1" parent="1" source="-eMX7yB4bLtKW5rNgO_s-14" target="-eMX7yB4bLtKW5rNgO_s-35">
          <mxGeometry relative="1" as="geometry" />
        </mxCell>
        <mxCell id="-eMX7yB4bLtKW5rNgO_s-42" style="edgeStyle=orthogonalEdgeStyle;rounded=0;orthogonalLoop=1;jettySize=auto;html=1;exitX=1;exitY=0.5;exitDx=0;exitDy=0;exitPerimeter=0;entryX=0;entryY=0.5;entryDx=0;entryDy=0;" edge="1" parent="1" source="-eMX7yB4bLtKW5rNgO_s-14" target="-eMX7yB4bLtKW5rNgO_s-36">
          <mxGeometry relative="1" as="geometry" />
        </mxCell>
        <mxCell id="-eMX7yB4bLtKW5rNgO_s-43" style="edgeStyle=orthogonalEdgeStyle;rounded=0;orthogonalLoop=1;jettySize=auto;html=1;exitX=1;exitY=0.5;exitDx=0;exitDy=0;exitPerimeter=0;entryX=0;entryY=0.5;entryDx=0;entryDy=0;" edge="1" parent="1" source="-eMX7yB4bLtKW5rNgO_s-14" target="-eMX7yB4bLtKW5rNgO_s-37">
          <mxGeometry relative="1" as="geometry" />
        </mxCell>
        <mxCell id="-eMX7yB4bLtKW5rNgO_s-14" value="" style="verticalLabelPosition=bottom;html=1;verticalAlign=top;align=center;strokeColor=none;fillColor=#00BEF2;shape=mxgraph.azure.cloud_services_configuration_file;pointerEvents=1;" vertex="1" parent="1">
          <mxGeometry x="151" y="257" width="30" height="30" as="geometry" />
        </mxCell>
        <mxCell id="-eMX7yB4bLtKW5rNgO_s-15" value="&lt;b&gt;ERP&lt;/b&gt;" style="image;aspect=fixed;html=1;points=[];align=center;fontSize=12;image=img/lib/azure2/general/Folder_Blank.svg;" vertex="1" parent="1">
          <mxGeometry x="102" y="397" width="69" height="56.00000000000001" as="geometry" />
        </mxCell>
        <mxCell id="-eMX7yB4bLtKW5rNgO_s-48" style="edgeStyle=orthogonalEdgeStyle;rounded=0;orthogonalLoop=1;jettySize=auto;html=1;exitX=1;exitY=0.5;exitDx=0;exitDy=0;exitPerimeter=0;entryX=0;entryY=0.5;entryDx=0;entryDy=0;" edge="1" parent="1" source="-eMX7yB4bLtKW5rNgO_s-16" target="-eMX7yB4bLtKW5rNgO_s-39">
          <mxGeometry relative="1" as="geometry" />
        </mxCell>
        <mxCell id="-eMX7yB4bLtKW5rNgO_s-49" style="edgeStyle=orthogonalEdgeStyle;rounded=0;orthogonalLoop=1;jettySize=auto;html=1;exitX=1;exitY=0.5;exitDx=0;exitDy=0;exitPerimeter=0;entryX=0;entryY=0.5;entryDx=0;entryDy=0;" edge="1" parent="1" source="-eMX7yB4bLtKW5rNgO_s-16" target="-eMX7yB4bLtKW5rNgO_s-38">
          <mxGeometry relative="1" as="geometry" />
        </mxCell>
        <mxCell id="-eMX7yB4bLtKW5rNgO_s-50" style="edgeStyle=orthogonalEdgeStyle;rounded=0;orthogonalLoop=1;jettySize=auto;html=1;exitX=1;exitY=0.5;exitDx=0;exitDy=0;exitPerimeter=0;entryX=0;entryY=0.5;entryDx=0;entryDy=0;" edge="1" parent="1" source="-eMX7yB4bLtKW5rNgO_s-16" target="-eMX7yB4bLtKW5rNgO_s-40">
          <mxGeometry relative="1" as="geometry" />
        </mxCell>
        <mxCell id="-eMX7yB4bLtKW5rNgO_s-16" value="" style="verticalLabelPosition=bottom;html=1;verticalAlign=top;align=center;strokeColor=none;fillColor=#00BEF2;shape=mxgraph.azure.cloud_services_configuration_file;pointerEvents=1;" vertex="1" parent="1">
          <mxGeometry x="151" y="427" width="30" height="35" as="geometry" />
        </mxCell>
        <mxCell id="-eMX7yB4bLtKW5rNgO_s-57" style="edgeStyle=orthogonalEdgeStyle;rounded=0;orthogonalLoop=1;jettySize=auto;html=1;exitX=1;exitY=0.5;exitDx=0;exitDy=0;" edge="1" parent="1" source="-eMX7yB4bLtKW5rNgO_s-35" target="-eMX7yB4bLtKW5rNgO_s-51">
          <mxGeometry relative="1" as="geometry" />
        </mxCell>
        <mxCell id="-eMX7yB4bLtKW5rNgO_s-35" value="&lt;font style=&quot;font-size: 15px;&quot;&gt;&lt;b&gt;crm_cust_info&lt;/b&gt;&lt;/font&gt;" style="rounded=1;whiteSpace=wrap;html=1;fillColor=#ffe6cc;strokeColor=#d79b00;fontSize=20;" vertex="1" parent="1">
          <mxGeometry x="293" y="257" width="140" height="30" as="geometry" />
        </mxCell>
        <mxCell id="-eMX7yB4bLtKW5rNgO_s-36" value="&lt;font style=&quot;font-size: 15px;&quot;&gt;&lt;b&gt;crm_prd_info&lt;/b&gt;&lt;/font&gt;" style="rounded=1;whiteSpace=wrap;html=1;fillColor=#ffe6cc;strokeColor=#d79b00;fontSize=20;" vertex="1" parent="1">
          <mxGeometry x="293" y="303" width="140" height="30" as="geometry" />
        </mxCell>
        <mxCell id="-eMX7yB4bLtKW5rNgO_s-59" style="edgeStyle=orthogonalEdgeStyle;rounded=0;orthogonalLoop=1;jettySize=auto;html=1;exitX=1;exitY=0.5;exitDx=0;exitDy=0;" edge="1" parent="1" source="-eMX7yB4bLtKW5rNgO_s-37" target="-eMX7yB4bLtKW5rNgO_s-53">
          <mxGeometry relative="1" as="geometry" />
        </mxCell>
        <mxCell id="-eMX7yB4bLtKW5rNgO_s-37" value="&lt;font style=&quot;font-size: 15px;&quot;&gt;&lt;b&gt;crm_sales_details&lt;/b&gt;&lt;/font&gt;" style="rounded=1;whiteSpace=wrap;html=1;fillColor=#ffe6cc;strokeColor=#d79b00;fontSize=20;" vertex="1" parent="1">
          <mxGeometry x="294" y="205" width="140" height="30" as="geometry" />
        </mxCell>
        <mxCell id="-eMX7yB4bLtKW5rNgO_s-38" value="&lt;font style=&quot;font-size: 15px;&quot;&gt;&lt;b&gt;erp_cust_az12&lt;/b&gt;&lt;/font&gt;" style="rounded=1;whiteSpace=wrap;html=1;fillColor=#ffe6cc;strokeColor=#d79b00;fontSize=20;" vertex="1" parent="1">
          <mxGeometry x="292" y="385" width="140" height="30" as="geometry" />
        </mxCell>
        <mxCell id="-eMX7yB4bLtKW5rNgO_s-61" style="edgeStyle=orthogonalEdgeStyle;rounded=0;orthogonalLoop=1;jettySize=auto;html=1;exitX=1;exitY=0.5;exitDx=0;exitDy=0;entryX=0;entryY=0.5;entryDx=0;entryDy=0;" edge="1" parent="1" source="-eMX7yB4bLtKW5rNgO_s-39" target="-eMX7yB4bLtKW5rNgO_s-55">
          <mxGeometry relative="1" as="geometry" />
        </mxCell>
        <mxCell id="-eMX7yB4bLtKW5rNgO_s-39" value="&lt;font style=&quot;font-size: 15px;&quot;&gt;&lt;b&gt;erp_loc_a101&lt;/b&gt;&lt;/font&gt;" style="rounded=1;whiteSpace=wrap;html=1;fillColor=#ffe6cc;strokeColor=#d79b00;fontSize=20;" vertex="1" parent="1">
          <mxGeometry x="292" y="429" width="140" height="30" as="geometry" />
        </mxCell>
        <mxCell id="-eMX7yB4bLtKW5rNgO_s-62" style="edgeStyle=orthogonalEdgeStyle;rounded=0;orthogonalLoop=1;jettySize=auto;html=1;exitX=1;exitY=0.5;exitDx=0;exitDy=0;" edge="1" parent="1" source="-eMX7yB4bLtKW5rNgO_s-40" target="-eMX7yB4bLtKW5rNgO_s-56">
          <mxGeometry relative="1" as="geometry" />
        </mxCell>
        <mxCell id="-eMX7yB4bLtKW5rNgO_s-40" value="&lt;font style=&quot;font-size: 15px;&quot;&gt;&lt;b&gt;erp_px_cat_g1v1&lt;/b&gt;&lt;/font&gt;" style="rounded=1;whiteSpace=wrap;html=1;fillColor=#ffe6cc;strokeColor=#d79b00;fontSize=20;" vertex="1" parent="1">
          <mxGeometry x="292" y="471" width="140" height="30" as="geometry" />
        </mxCell>
        <mxCell id="-eMX7yB4bLtKW5rNgO_s-69" style="rounded=0;orthogonalLoop=1;jettySize=auto;html=1;exitX=1;exitY=0.5;exitDx=0;exitDy=0;entryX=0;entryY=0.25;entryDx=0;entryDy=0;jumpStyle=gap;" edge="1" parent="1" source="-eMX7yB4bLtKW5rNgO_s-51" target="-eMX7yB4bLtKW5rNgO_s-66">
          <mxGeometry relative="1" as="geometry" />
        </mxCell>
        <mxCell id="-eMX7yB4bLtKW5rNgO_s-51" value="&lt;font style=&quot;font-size: 15px;&quot;&gt;&lt;b&gt;crm_cust_info&lt;/b&gt;&lt;/font&gt;" style="rounded=1;whiteSpace=wrap;html=1;fillColor=#f5f5f5;strokeColor=#666666;fontSize=20;fontColor=#333333;" vertex="1" parent="1">
          <mxGeometry x="493" y="257" width="140" height="30" as="geometry" />
        </mxCell>
        <mxCell id="-eMX7yB4bLtKW5rNgO_s-72" style="rounded=0;orthogonalLoop=1;jettySize=auto;html=1;exitX=1;exitY=0.5;exitDx=0;exitDy=0;entryX=0;entryY=0.5;entryDx=0;entryDy=0;jumpStyle=gap;" edge="1" parent="1" source="-eMX7yB4bLtKW5rNgO_s-52" target="-eMX7yB4bLtKW5rNgO_s-67">
          <mxGeometry relative="1" as="geometry" />
        </mxCell>
        <mxCell id="-eMX7yB4bLtKW5rNgO_s-52" value="&lt;font style=&quot;font-size: 15px;&quot;&gt;&lt;b&gt;crm_prd_info&lt;/b&gt;&lt;/font&gt;" style="rounded=1;whiteSpace=wrap;html=1;fillColor=#f5f5f5;strokeColor=#666666;fontSize=20;fontColor=#333333;" vertex="1" parent="1">
          <mxGeometry x="493" y="303" width="140" height="30" as="geometry" />
        </mxCell>
        <mxCell id="-eMX7yB4bLtKW5rNgO_s-68" style="rounded=0;orthogonalLoop=1;jettySize=auto;html=1;exitX=1;exitY=0.5;exitDx=0;exitDy=0;entryX=0;entryY=0.5;entryDx=0;entryDy=0;" edge="1" parent="1" source="-eMX7yB4bLtKW5rNgO_s-53" target="-eMX7yB4bLtKW5rNgO_s-65">
          <mxGeometry relative="1" as="geometry" />
        </mxCell>
        <mxCell id="-eMX7yB4bLtKW5rNgO_s-53" value="&lt;font style=&quot;font-size: 15px;&quot;&gt;&lt;b&gt;crm_sales_details&lt;/b&gt;&lt;/font&gt;" style="rounded=1;whiteSpace=wrap;html=1;fillColor=#f5f5f5;strokeColor=#666666;fontSize=20;fontColor=#333333;" vertex="1" parent="1">
          <mxGeometry x="493" y="205" width="140" height="30" as="geometry" />
        </mxCell>
        <mxCell id="-eMX7yB4bLtKW5rNgO_s-70" style="rounded=0;orthogonalLoop=1;jettySize=auto;html=1;exitX=1;exitY=0.5;exitDx=0;exitDy=0;entryX=0;entryY=0.5;entryDx=0;entryDy=0;jumpStyle=gap;" edge="1" parent="1" source="-eMX7yB4bLtKW5rNgO_s-54" target="-eMX7yB4bLtKW5rNgO_s-66">
          <mxGeometry relative="1" as="geometry" />
        </mxCell>
        <mxCell id="-eMX7yB4bLtKW5rNgO_s-54" value="&lt;font style=&quot;font-size: 15px;&quot;&gt;&lt;b&gt;erp_cust_az12&lt;/b&gt;&lt;/font&gt;" style="rounded=1;whiteSpace=wrap;html=1;fillColor=#f5f5f5;strokeColor=#666666;fontSize=20;fontColor=#333333;" vertex="1" parent="1">
          <mxGeometry x="492" y="384" width="140" height="30" as="geometry" />
        </mxCell>
        <mxCell id="-eMX7yB4bLtKW5rNgO_s-71" style="rounded=0;orthogonalLoop=1;jettySize=auto;html=1;exitX=1;exitY=0.5;exitDx=0;exitDy=0;entryX=0;entryY=0.75;entryDx=0;entryDy=0;jumpStyle=gap;" edge="1" parent="1" source="-eMX7yB4bLtKW5rNgO_s-55" target="-eMX7yB4bLtKW5rNgO_s-66">
          <mxGeometry relative="1" as="geometry" />
        </mxCell>
        <mxCell id="-eMX7yB4bLtKW5rNgO_s-55" value="&lt;font style=&quot;font-size: 15px;&quot;&gt;&lt;b&gt;erp_loc_a101&lt;/b&gt;&lt;/font&gt;" style="rounded=1;whiteSpace=wrap;html=1;fillColor=#f5f5f5;strokeColor=#666666;fontSize=20;fontColor=#333333;" vertex="1" parent="1">
          <mxGeometry x="492" y="429" width="140" height="30" as="geometry" />
        </mxCell>
        <mxCell id="-eMX7yB4bLtKW5rNgO_s-73" style="rounded=0;orthogonalLoop=1;jettySize=auto;html=1;exitX=1;exitY=0.5;exitDx=0;exitDy=0;entryX=0;entryY=0.5;entryDx=0;entryDy=0;jumpStyle=gap;" edge="1" parent="1" source="-eMX7yB4bLtKW5rNgO_s-56" target="-eMX7yB4bLtKW5rNgO_s-67">
          <mxGeometry relative="1" as="geometry">
            <mxPoint x="680" y="410" as="targetPoint" />
          </mxGeometry>
        </mxCell>
        <mxCell id="-eMX7yB4bLtKW5rNgO_s-56" value="&lt;font style=&quot;font-size: 15px;&quot;&gt;&lt;b&gt;erp_px_cat_g1v1&lt;/b&gt;&lt;/font&gt;" style="rounded=1;whiteSpace=wrap;html=1;fillColor=#f5f5f5;strokeColor=#666666;fontSize=20;fontColor=#333333;" vertex="1" parent="1">
          <mxGeometry x="492" y="471" width="140" height="30" as="geometry" />
        </mxCell>
        <mxCell id="-eMX7yB4bLtKW5rNgO_s-58" style="edgeStyle=orthogonalEdgeStyle;rounded=0;orthogonalLoop=1;jettySize=auto;html=1;exitX=1;exitY=0.5;exitDx=0;exitDy=0;entryX=0;entryY=0.5;entryDx=0;entryDy=0;" edge="1" parent="1" source="-eMX7yB4bLtKW5rNgO_s-36" target="-eMX7yB4bLtKW5rNgO_s-52">
          <mxGeometry relative="1" as="geometry" />
        </mxCell>
        <mxCell id="-eMX7yB4bLtKW5rNgO_s-60" style="edgeStyle=orthogonalEdgeStyle;rounded=0;orthogonalLoop=1;jettySize=auto;html=1;exitX=1;exitY=0.5;exitDx=0;exitDy=0;entryX=0.05;entryY=0.55;entryDx=0;entryDy=0;entryPerimeter=0;" edge="1" parent="1" source="-eMX7yB4bLtKW5rNgO_s-38" target="-eMX7yB4bLtKW5rNgO_s-54">
          <mxGeometry relative="1" as="geometry" />
        </mxCell>
        <mxCell id="-eMX7yB4bLtKW5rNgO_s-65" value="&lt;font style=&quot;font-size: 15px;&quot;&gt;&lt;b&gt;fact_sales&lt;/b&gt;&lt;/font&gt;" style="rounded=1;whiteSpace=wrap;html=1;fillColor=#fff2cc;strokeColor=#d6b656;fontSize=20;" vertex="1" parent="1">
          <mxGeometry x="682" y="227" width="140" height="30" as="geometry" />
        </mxCell>
        <mxCell id="-eMX7yB4bLtKW5rNgO_s-66" value="&lt;font style=&quot;font-size: 15px;&quot;&gt;&lt;b&gt;dim_customer&lt;/b&gt;&lt;/font&gt;" style="rounded=1;whiteSpace=wrap;html=1;fillColor=#fff2cc;strokeColor=#d6b656;fontSize=20;" vertex="1" parent="1">
          <mxGeometry x="682" y="343.5" width="140" height="30" as="geometry" />
        </mxCell>
        <mxCell id="-eMX7yB4bLtKW5rNgO_s-67" value="&lt;font style=&quot;font-size: 15px;&quot;&gt;&lt;b&gt;dim_products&lt;/b&gt;&lt;/font&gt;" style="rounded=1;whiteSpace=wrap;html=1;fillColor=#fff2cc;strokeColor=#d6b656;fontSize=20;" vertex="1" parent="1">
          <mxGeometry x="682" y="441" width="140" height="30" as="geometry" />
        </mxCell>
      </root>
    </mxGraphModel>
  </diagram>
</mxfile>
